# xmcd
#
# Track frame offsets: 
#        150
#        13165
#        32300
#        43297
#        54460
#        66800
#        81665
#        97347
#        106495
#        120910
#        130977
#
# Disc length: 1896 seconds
#
# Revision: 0
# Processed by: cddbd v1.5.2PL0 Copyright (c) Steve Scherf et al.
# Submitted via: ExactAudioCopy v0.99pb4
#
DISCID=9807660b
DTITLE=Patricia Ryan - Little Girl Big Dreams
DYEAR=2000
DGENRE=
TTITLE0=Let 'Er Rip
TTITLE1=Don't Cry joni
TTITLE2=Little Girl With Big Dreams
TTITLE3=Act Naturally
TTITLE4=I Never
TTITLE5=Daddy's Dream
TTITLE6=Six Weeks Every Summer (Christmas Every Other Year)
TTITLE7=Birds and the Bees
TTITLE8=Yodeler's Waltz
TTITLE9=Before He Kissed Me
TTITLE10=Rockin' Robin
EXTD=
EXTT0=
EXTT1=
EXTT2=
EXTT3=
EXTT4=
EXTT5=
EXTT6=
EXTT7=
EXTT8=
EXTT9=
EXTT10=
PLAYORDER=
